<?xml version="1.0" encoding="UTF-8" standalone="no"?>
<!-- Uploaded to: SVG Repo, www.svgrepo.com, Generator: SVG Repo Mixer Tools -->

<svg
   height="800px"
   width="800px"
   version="1.1"
   id="Layer_1"
   viewBox="0 0 372.084 372.084"
   xml:space="preserve"
   sodipodi:docname="keyboardmouseoff.svg"
   inkscape:version="1.2.2 (b0a8486541, 2022-12-01)"
   xmlns:inkscape="http://www.inkscape.org/namespaces/inkscape"
   xmlns:sodipodi="http://sodipodi.sourceforge.net/DTD/sodipodi-0.dtd"
   xmlns:xlink="http://www.w3.org/1999/xlink"
   xmlns="http://www.w3.org/2000/svg"
   xmlns:svg="http://www.w3.org/2000/svg"><defs
   id="defs25"><linearGradient
     inkscape:collect="always"
     xlink:href="#linearGradient868"
     id="linearGradient870"
     x1="9.4129953"
     y1="283.28815"
     x2="9.4129953"
     y2="293.74509"
     gradientUnits="userSpaceOnUse"
     gradientTransform="matrix(0.94477079,0,0,0.93849161,0.46760722,18.265044)" /><linearGradient
     inkscape:collect="always"
     id="linearGradient868"><stop
       style="stop-color:#000000;stop-opacity:1"
       offset="0"
       id="stop864" /><stop
       style="stop-color:#000000;stop-opacity:1"
       offset="1"
       id="stop866" /></linearGradient><filter
     inkscape:collect="always"
     style="color-interpolation-filters:sRGB"
     id="filter948"
     x="-0.00098268084"
     width="1.0019654"
     y="-0.01003982"
     height="1.0200796"><feGaussianBlur
       inkscape:collect="always"
       stdDeviation="0.0056794789"
       id="feGaussianBlur950" /></filter><filter
     inkscape:collect="always"
     style="color-interpolation-filters:sRGB"
     id="filter944"
     x="-0.00078090221"
     width="1.0015618"
     y="-0.0029018711"
     height="1.0058037"><feGaussianBlur
       inkscape:collect="always"
       stdDeviation="0.037018293"
       id="feGaussianBlur946" /></filter></defs><sodipodi:namedview
   id="namedview23"
   pagecolor="#ffffff"
   bordercolor="#000000"
   borderopacity="0.25"
   inkscape:showpageshadow="2"
   inkscape:pageopacity="0.0"
   inkscape:pagecheckerboard="0"
   inkscape:deskcolor="#d1d1d1"
   showgrid="false"
   inkscape:zoom="0.44636116"
   inkscape:cx="634.01574"
   inkscape:cy="401.02055"
   inkscape:window-width="1366"
   inkscape:window-height="667"
   inkscape:window-x="0"
   inkscape:window-y="0"
   inkscape:window-maximized="1"
   inkscape:current-layer="Layer_1" />






<g
   id="g536"
   transform="matrix(21.578752,0,0,13.457132,3.3419036,-3814.1828)"><rect
     rx="1.7712284"
     style="fill:url(#linearGradient870);fill-opacity:1;stroke:#ffffff;stroke-width:0.98253;stroke-linecap:round;stroke-miterlimit:4;stroke-dasharray:none;stroke-opacity:1;paint-order:stroke fill markers"
     id="rect855"
     width="15.703177"
     height="9.9989491"
     x="0.61507767"
     y="284.0517"
     ry="1.9156351" /><rect
     style="fill:#feffff;fill-opacity:1;stroke:none;stroke-width:0.0405933;stroke-linecap:round;stroke-opacity:1;paint-order:stroke fill markers;filter:url(#filter948)"
     id="rect859"
     width="13.870983"
     height="1.3576686"
     x="1.5311748"
     y="291.33426"
     ry="0.4009043"
     transform="matrix(0.82220528,0,0,0.82220528,1.5053286,51.852629)" /><g
     id="g868"
     transform="matrix(0.79645546,0,0,0.79645546,1.723344,58.969037)"><g
       style="fill:#feffff;fill-opacity:1;stroke:none;filter:url(#filter944)"
       transform="matrix(0.13106442,0,0,0.17959713,-3.1007438,272.13927)"
       id="g928"><rect
         ry="2.2322421"
         style="fill:#feffff;fill-opacity:1;stroke:none;stroke-width:0.264583;stroke-linecap:round;stroke-opacity:1;paint-order:stroke fill markers"
         id="rect857"
         width="12.851191"
         height="7.9375"
         x="31.372023"
         y="70.970238" /><rect
         ry="2.6042826"
         y="70.970238"
         x="48.002975"
         height="7.9375"
         width="12.851191"
         id="rect861"
         style="fill:#feffff;fill-opacity:1;stroke:none;stroke-width:0.264583;stroke-linecap:round;stroke-opacity:1;paint-order:stroke fill markers" /><rect
         ry="2.046222"
         style="fill:#feffff;fill-opacity:1;stroke:none;stroke-width:0.264583;stroke-linecap:round;stroke-opacity:1;paint-order:stroke fill markers"
         id="rect863"
         width="12.851191"
         height="7.9375"
         x="65.011902"
         y="70.970238" /><rect
         ry="2.4182625"
         y="70.970238"
         x="81.264877"
         height="7.9375"
         width="12.851191"
         id="rect865"
         style="fill:#feffff;fill-opacity:1;stroke:none;stroke-width:0.264583;stroke-linecap:round;stroke-opacity:1;paint-order:stroke fill markers" /><rect
         ry="1.6741817"
         y="81.553574"
         x="31.372023"
         height="7.9375"
         width="12.851191"
         id="rect867"
         style="fill:#feffff;fill-opacity:1;stroke:none;stroke-width:0.264583;stroke-linecap:round;stroke-opacity:1;paint-order:stroke fill markers" /><rect
         ry="1.8602018"
         style="fill:#feffff;fill-opacity:1;stroke:none;stroke-width:0.264583;stroke-linecap:round;stroke-opacity:1;paint-order:stroke fill markers"
         id="rect869"
         width="12.851191"
         height="7.9375"
         x="48.002975"
         y="81.553574" /><rect
         ry="1.6741817"
         y="81.553574"
         x="65.011902"
         height="7.9375"
         width="12.851191"
         id="rect871"
         style="fill:#feffff;fill-opacity:1;stroke:none;stroke-width:0.264583;stroke-linecap:round;stroke-opacity:1;paint-order:stroke fill markers" /><rect
         ry="1.6741817"
         style="fill:#feffff;fill-opacity:1;stroke:none;stroke-width:0.264583;stroke-linecap:round;stroke-opacity:1;paint-order:stroke fill markers"
         id="rect873"
         width="12.851191"
         height="7.9375"
         x="81.264877"
         y="81.553574" /><rect
         ry="1.8602018"
         style="fill:#feffff;fill-opacity:1;stroke:none;stroke-width:0.264583;stroke-linecap:round;stroke-opacity:1;paint-order:stroke fill markers"
         id="rect875"
         width="12.851191"
         height="7.9375"
         x="31.372023"
         y="93.648811" /><rect
         ry="1.6741817"
         y="93.648811"
         x="48.002975"
         height="7.9375"
         width="12.851191"
         id="rect877"
         style="fill:#feffff;fill-opacity:1;stroke:none;stroke-width:0.264583;stroke-linecap:round;stroke-opacity:1;paint-order:stroke fill markers" /><rect
         ry="1.6741817"
         style="fill:#feffff;fill-opacity:1;stroke:none;stroke-width:0.264583;stroke-linecap:round;stroke-opacity:1;paint-order:stroke fill markers"
         id="rect879"
         width="12.851191"
         height="7.9375"
         x="65.011902"
         y="93.648811" /><rect
         ry="1.8602018"
         y="93.648811"
         x="81.264877"
         height="7.9375"
         width="12.851191"
         id="rect881"
         style="fill:#feffff;fill-opacity:1;stroke:none;stroke-width:0.264583;stroke-linecap:round;stroke-opacity:1;paint-order:stroke fill markers" /><rect
         ry="1.8602018"
         y="70.970238"
         x="99.029762"
         height="7.9375"
         width="12.851191"
         id="rect883"
         style="fill:#feffff;fill-opacity:1;stroke:none;stroke-width:0.264583;stroke-linecap:round;stroke-opacity:1;paint-order:stroke fill markers" /><rect
         ry="1.4881614"
         style="fill:#feffff;fill-opacity:1;stroke:none;stroke-width:0.264583;stroke-linecap:round;stroke-opacity:1;paint-order:stroke fill markers"
         id="rect885"
         width="12.851191"
         height="7.9375"
         x="115.28274"
         y="70.970238" /><rect
         ry="1.6741817"
         style="fill:#feffff;fill-opacity:1;stroke:none;stroke-width:0.264583;stroke-linecap:round;stroke-opacity:1;paint-order:stroke fill markers"
         id="rect887"
         width="12.851191"
         height="7.9375"
         x="99.029762"
         y="81.553574" /><rect
         ry="1.3021413"
         y="81.553574"
         x="115.28274"
         height="7.9375"
         width="12.851191"
         id="rect889"
         style="fill:#feffff;fill-opacity:1;stroke:none;stroke-width:0.264583;stroke-linecap:round;stroke-opacity:1;paint-order:stroke fill markers" /><rect
         ry="1.4881614"
         y="93.648811"
         x="99.029762"
         height="7.9375"
         width="12.851191"
         id="rect891"
         style="fill:#feffff;fill-opacity:1;stroke:none;stroke-width:0.264583;stroke-linecap:round;stroke-opacity:1;paint-order:stroke fill markers" /><rect
         ry="1.8602018"
         style="fill:#feffff;fill-opacity:1;stroke:none;stroke-width:0.264583;stroke-linecap:round;stroke-opacity:1;paint-order:stroke fill markers"
         id="rect893"
         width="12.851191"
         height="7.9375"
         x="115.28274"
         y="93.648811" /><rect
         ry="1.6741817"
         style="fill:#feffff;fill-opacity:1;stroke:none;stroke-width:0.264583;stroke-linecap:round;stroke-opacity:1;paint-order:stroke fill markers"
         id="rect895"
         width="12.851191"
         height="7.9375"
         x="132.29167"
         y="70.970238" /><rect
         ry="1.8602018"
         y="81.553574"
         x="132.29167"
         height="7.9375"
         width="12.851191"
         id="rect899"
         style="fill:#feffff;fill-opacity:1;stroke:none;stroke-width:0.264583;stroke-linecap:round;stroke-opacity:1;paint-order:stroke fill markers" /><rect
         ry="1.8602018"
         style="fill:#feffff;fill-opacity:1;stroke:none;stroke-width:0.264583;stroke-linecap:round;stroke-opacity:1;paint-order:stroke fill markers"
         id="rect903"
         width="12.851191"
         height="7.9375"
         x="132.29167"
         y="93.648811" /></g></g></g><g
   id="g4"
   transform="matrix(0.34875109,0.2425849,-0.22320452,0.32088897,28.877022,97.944764)"><path
     d="M 417.6,206.6 C 334.2,122 222.4,97.5 163.8,149.5 139.5,138.4 57.3,96.4 30.5,10.5 l -19.9,6.4 c 27.8,89.1 106.2,133.7 138.6,148.7 -44.1,60.9 -18.7,169.1 61.7,250.6 85.7,86.9 201.4,110.5 258.5,52.6 57.1,-57.8 33.9,-175.2 -51.8,-262.2 z m -75.4,-32.8 -74.8,75.9 -86.5,-87.8 c 38,-30.1 101,-24 161.3,11.9 z m -175.5,2.4 86.5,87.7 -74.7,75.8 C 143.3,278.7 137.2,214.9 166.7,176.2 Z M 455.1,454.3 C 406.2,503.9 303.5,480.1 225.7,401.2 212.1,387.4 200.2,372.9 190.1,358 L 360.2,185.4 c 14.7,10.3 29,22.4 42.6,36.2 77.8,78.9 101.2,183.1 52.3,232.7 z"
     id="path2" /></g><g
   id="g537"
   transform="matrix(0.8207477,0,0,0.71009498,-54.4594,9.776931)"><path
     inkscape:connector-curvature="0"
     style="fill:#cc092e;stroke-width:1"
     d="m 515.59085,295.75149 -78.7607,-77.36676 c -2.62546,-2.57914 -6.18378,-4.02839 -9.89051,-4.02839 H 315.55392 c -3.71557,0 -7.27389,1.44925 -9.89934,4.02839 l -78.756,77.36676 c -2.62545,2.57915 -4.10073,6.0747 -4.10073,9.72472 V 414.8977 c 0,3.64598 1.47528,7.14096 4.10073,9.7201 l 78.76012,77.37081 c 2.62074,2.57914 6.18377,4.02839 9.89934,4.02839 h 111.3869 c 3.70673,0 7.26446,-1.44462 9.89051,-4.02376 l 78.76482,-77.37081 c 2.62075,-2.57915 4.10073,-6.0747 4.10073,-9.72473 V 305.47621 c -0.009,-3.65002 -1.48469,-7.14557 -4.11015,-9.72472 z"
     id="path2-7" /><path
     inkscape:connector-curvature="0"
     style="fill:#ffffff;stroke-width:1"
     d="m 273.655,353.545 c -9.35223,-3.54994 -12.19559,-6.10189 -12.19559,-10.90958 0,-3.6182 2.78329,-7.84735 10.63728,-7.84735 5.36281,0 9.45882,1.59505 11.95943,2.93032 0.59835,0.31878 1.31272,0.36911 1.94818,0.12323 0.64488,-0.24588 1.14135,-0.75673 1.35925,-1.39429 l 2.44466,-7.11838 c 0.3616,-1.03444 -0.0836,-2.17359 -1.05301,-2.71163 -2.41698,-1.34454 -7.75623,-3.6049 -16.35227,-3.6049 -14.46886,0 -24.57256,8.48085 -24.57256,20.63025 0,9.71141 6.45292,16.67938 19.65087,21.27706 9.60252,3.62283 11.48121,6.89044 11.48121,11.30645 0,5.79237 -4.51357,9.2509 -12.07073,9.2509 -4.99178,0 -10.49358,-1.52215 -14.71504,-4.0741 -0.59835,-0.36911 -1.35925,-0.442 -2.03652,-0.19149 -0.66785,0.25513 -1.18316,0.80186 -1.39165,1.47644 l -2.245,7.31856 c -0.2874,0.96154 0.0836,1.99597 0.93228,2.55658 4.22146,2.76138 11.97768,4.69371 18.84344,4.69371 18.2498,0 26.40944,-10.9142 26.40944,-21.73295 0,-10.34029 -5.69673,-16.916 -19.03367,-21.97883 z"
     id="path16-6" /><path
     inkscape:connector-curvature="0"
     style="fill:#e0e0e0;stroke-width:1"
     d="m 355.78793,324.11512 h -50.93607 c -1.27562,0 -2.31921,1.02055 -2.31921,2.2783 v 7.41923 c 0,1.25775 1.04359,2.2783 2.31921,2.2783 h 18.6114 v 57.88492 c 0,1.25775 1.03476,2.2783 2.31921,2.2783 h 8.9812 c 1.28505,0 2.31921,-1.02055 2.31921,-2.2783 v -57.88492 h 18.70917 c 1.28505,0 2.31921,-1.02055 2.31921,-2.2783 v -7.41923 c -0.004,-1.25775 -1.03829,-2.2783 -2.32333,-2.2783 z"
     id="path18-2" /><path
     inkscape:connector-curvature="0"
     style="fill:#ffffff;stroke-width:1"
     d="m 326.20945,324.11512 h -21.35759 c -1.27562,0 -2.31921,1.02055 -2.31921,2.2783 v 7.41923 c 0,1.25775 1.04359,2.2783 2.31921,2.2783 h 18.6114 v 57.88492 c 0,1.25775 1.03476,2.2783 2.31921,2.2783 h 8.9812 c 1.28505,0 2.31921,-1.02055 2.31921,-2.2783 v -57.88492 h 1.32215 z"
     id="path20-6" /><path
     inkscape:connector-curvature="0"
     style="fill:#e0e0e0;stroke-width:1"
     d="m 398.75398,323.01184 c -20.17972,0 -34.26813,15.53502 -34.26813,37.7742 0,21.5322 13.67086,36.57083 33.24281,36.57083 17.06192,0 34.26813,-11.71201 34.26813,-37.87429 0,-21.81452 -13.35578,-36.47074 -33.24281,-36.47074 z m -0.5106,62.67004 c -13.48063,0 -19.62259,-13.00621 -19.62259,-25.09602 0,-12.89224 6.09543,-25.89845 19.72507,-25.89845 13.48063,0 19.62259,13.0606 19.62259,25.19668 0,12.83728 -6.09544,25.79779 -19.72507,25.79779 z"
     id="path22-1" /><path
     inkscape:connector-curvature="0"
     style="fill:#ffffff;stroke-width:1"
     d="m 364.52295,361.75221 c 0.40813,21.00861 13.93529,35.60466 33.20571,35.60466 0.96938,0 1.94818,-0.0503 2.90873,-0.12323 z"
     id="path24" /><path
     inkscape:connector-curvature="0"
     style="fill:#e0e0e0;stroke-width:1"
     d="m 489.29272,329.81145 c -4.64843,-4.11517 -11.6626,-6.19793 -20.83815,-6.19793 -6.24385,0 -11.94058,0.43738 -17.43295,1.33065 -1.11308,0.18224 -1.93935,1.13452 -1.93935,2.24648 v 66.78001 c 0,1.25775 1.04359,2.2783 2.31921,2.2783 h 8.88815 c 1.27563,0 2.31921,-1.02055 2.31921,-2.2783 v -24.38499 c 1.58658,0.15968 3.22381,0.1915 4.81981,0.1915 9.63963,0 17.7021,-2.88924 22.68916,-8.10712 3.96174,-4.0012 5.97059,-9.39668 5.97059,-16.02736 0,-6.48893 -2.42581,-12.12162 -6.79568,-15.83124 z m -21.655,28.39545 c -1.99471,0 -3.6602,-0.0955 -5.02888,-0.28696 v -22.50762 c 1.41461,-0.18224 3.4423,-0.31878 6.04479,-0.31878 6.35103,0 13.91703,1.90052 13.91703,10.95529 0,10.57691 -9.36165,12.15807 -14.93294,12.15807 z"
     id="path26-8" /></g></svg>
