<?xml version="1.0" encoding="UTF-8" standalone="no"?>
<!-- Uploaded to: SVG Repo, www.svgrepo.com, Generator: SVG Repo Mixer Tools -->

<svg
   height="800px"
   width="800px"
   version="1.1"
   id="Layer_1"
   viewBox="0 0 372.084 372.084"
   xml:space="preserve"
   sodipodi:docname="mouseoff.svg"
   inkscape:version="1.2.2 (b0a8486541, 2022-12-01)"
   xmlns:inkscape="http://www.inkscape.org/namespaces/inkscape"
   xmlns:sodipodi="http://sodipodi.sourceforge.net/DTD/sodipodi-0.dtd"
   xmlns="http://www.w3.org/2000/svg"
   xmlns:svg="http://www.w3.org/2000/svg"><defs
   id="defs25" /><sodipodi:namedview
   id="namedview23"
   pagecolor="#ffffff"
   bordercolor="#000000"
   borderopacity="0.25"
   inkscape:showpageshadow="2"
   inkscape:pageopacity="0.0"
   inkscape:pagecheckerboard="0"
   inkscape:deskcolor="#d1d1d1"
   showgrid="false"
   inkscape:zoom="0.44636116"
   inkscape:cx="613.85269"
   inkscape:cy="401.02055"
   inkscape:window-width="1366"
   inkscape:window-height="667"
   inkscape:window-x="0"
   inkscape:window-y="0"
   inkscape:window-maximized="1"
   inkscape:current-layer="Layer_1" />






<g
   id="g4"
   transform="matrix(0.50864816,0.28242615,-0.3255404,0.37359059,110.34679,26.489445)"><path
     d="M 417.6,206.6 C 334.2,122 222.4,97.5 163.8,149.5 139.5,138.4 57.3,96.4 30.5,10.5 l -19.9,6.4 c 27.8,89.1 106.2,133.7 138.6,148.7 -44.1,60.9 -18.7,169.1 61.7,250.6 85.7,86.9 201.4,110.5 258.5,52.6 57.1,-57.8 33.9,-175.2 -51.8,-262.2 z m -75.4,-32.8 -74.8,75.9 -86.5,-87.8 c 38,-30.1 101,-24 161.3,11.9 z m -175.5,2.4 86.5,87.7 -74.7,75.8 C 143.3,278.7 137.2,214.9 166.7,176.2 Z M 455.1,454.3 C 406.2,503.9 303.5,480.1 225.7,401.2 212.1,387.4 200.2,372.9 190.1,358 L 360.2,185.4 c 14.7,10.3 29,22.4 42.6,36.2 77.8,78.9 101.2,183.1 52.3,232.7 z"
     id="path2" /></g><g
   id="g20"
   transform="matrix(1.8274297,0,0,1.5571576,-268.30453,-22.733467)"
   style="fill:#ff0000">
	<path
   style="fill:#ff0000"
   d="m 334.042,249.284 c -2,0 -4,-0.8 -5.6,-2.4 l -113.2,-113.2 c -3.2,-3.2 -3.2,-8 0,-11.2 3.2,-3.2 8,-3.2 11.2,0 l 113.2,113.2 c 3.2,3.2 3.2,8 0,11.2 -1.6,1.6 -3.6,2.4 -5.6,2.4 z"
   id="path16" />
	<path
   style="fill:#ff0000"
   d="m 220.842,249.284 c -2,0 -4,-0.8 -5.6,-2.4 -3.2,-3.2 -3.2,-8 0,-11.2 l 113.2,-113.2 c 3.2,-3.2 8,-3.2 11.2,0 3.2,3.2 3.2,8 0,11.2 l -113.2,113.2 c -1.6,1.6 -3.6,2.4 -5.6,2.4 z"
   id="path18" />
</g></svg>
