<?xml version="1.0" encoding="UTF-8" standalone="no"?>
<!-- Uploaded to: SVG Repo, www.svgrepo.com, Generator: SVG Repo Mixer Tools -->

<svg
   height="800px"
   width="800px"
   version="1.1"
   id="Layer_1"
   viewBox="0 0 512 512"
   xml:space="preserve"
   sodipodi:docname="stoppower.svg"
   inkscape:version="1.2.2 (b0a8486541, 2022-12-01)"
   xmlns:inkscape="http://www.inkscape.org/namespaces/inkscape"
   xmlns:sodipodi="http://sodipodi.sourceforge.net/DTD/sodipodi-0.dtd"
   xmlns="http://www.w3.org/2000/svg"
   xmlns:svg="http://www.w3.org/2000/svg"><defs
   id="defs197" /><sodipodi:namedview
   id="namedview195"
   pagecolor="#ffffff"
   bordercolor="#000000"
   borderopacity="0.25"
   inkscape:showpageshadow="2"
   inkscape:pageopacity="0.0"
   inkscape:pagecheckerboard="0"
   inkscape:deskcolor="#d1d1d1"
   showgrid="false"
   inkscape:zoom="0.44636116"
   inkscape:cx="215.07248"
   inkscape:cy="401.02055"
   inkscape:window-width="1366"
   inkscape:window-height="667"
   inkscape:window-x="0"
   inkscape:window-y="0"
   inkscape:window-maximized="1"
   inkscape:current-layer="Layer_1" />
<g
   id="g192"
   style="fill:#00d455">
	<path
   style="fill:#00d455"
   d="M256,512C128.502,512,24.774,408.272,24.774,280.774c0-84.49,46.065-162.23,120.216-202.879   c12.006-6.577,27.057-2.18,33.633,9.816c6.577,11.997,2.182,27.055-9.814,33.633c-58.282,31.949-94.487,93.039-94.487,159.43   c0,100.177,81.5,181.677,181.677,181.677s181.677-81.5,181.677-181.677c0-66.682-36.44-127.899-95.097-159.764   c-12.022-6.532-16.475-21.573-9.943-33.595s21.572-16.475,33.595-9.944c74.631,40.542,120.992,118.444,120.992,203.304   C487.226,408.272,383.498,512,256,512z"
   id="path188" />
	<path
   style="fill:#00d455"
   d="M256,214.71c-13.682,0-24.774-11.092-24.774-24.774V24.774C231.226,11.092,242.318,0,256,0   c13.682,0,24.774,11.092,24.774,24.774v165.161C280.774,203.617,269.682,214.71,256,214.71z"
   id="path190" />
</g>
<g
   id="g20"
   transform="matrix(2.5146041,0,0,2.1427007,-363.57242,-42.594071)"
   style="fill:#ff0000">
	<path
   style="fill:#ff0000"
   d="m 334.042,249.284 c -2,0 -4,-0.8 -5.6,-2.4 l -113.2,-113.2 c -3.2,-3.2 -3.2,-8 0,-11.2 3.2,-3.2 8,-3.2 11.2,0 l 113.2,113.2 c 3.2,3.2 3.2,8 0,11.2 -1.6,1.6 -3.6,2.4 -5.6,2.4 z"
   id="path16" />
	<path
   style="fill:#ff0000"
   d="m 220.842,249.284 c -2,0 -4,-0.8 -5.6,-2.4 -3.2,-3.2 -3.2,-8 0,-11.2 l 113.2,-113.2 c 3.2,-3.2 8,-3.2 11.2,0 3.2,3.2 3.2,8 0,11.2 l -113.2,113.2 c -1.6,1.6 -3.6,2.4 -5.6,2.4 z"
   id="path18" />
</g></svg>
